# xmcd CD database file
#
# Track frame offsets:
#	150
#	11838
#	28736
#	45750
#	58523
#	74969
#	96450
#	120692
#	136144
#	150303
#
# Disc length: 2161 seconds
#
# Revision: 0
# Processed by: cddbd v1.5.2PL0 Copyright (c) Steve Scherf et al.
# Submitted via: CDex 1.70beta2
#
DISCID=84086f0a
DTITLE=West Point - Baby, come back
DYEAR=1996
DGENRE=Country
TTITLE0=Bye, bye Honey
TTITLE1=Easy Rider
TTITLE2=Then it's love
TTITLE3=Not like me
TTITLE4=Angel of my Heart
TTITLE5=Neverending Love
TTITLE6=What a time it was
TTITLE7=Baby come back
TTITLE8=Country Band
TTITLE9=Country Fieber
EXTD=YEAR: 1996
EXTT0=
EXTT1=
EXTT2=
EXTT3=
EXTT4=
EXTT5=
EXTT6=
EXTT7=
EXTT8=
EXTT9=
PLAYORDER=
